<svg width="200" height="200" viewBox="0 0 200 200" fill="none" xmlns="http://www.w3.org/2000/svg">
<path d="M189.368 116.562L189.31 116.591C182.454 121.848 179.55 130.795 181.99 139.074L182.019 139.132C185.911 152.29 176.268 165.565 162.557 165.913H162.499C153.843 166.146 146.232 171.665 143.356 179.827V179.856C138.767 192.811 123.14 197.894 111.84 190.08C104.824 185.289 95.5482 185.039 88.1662 190.08H88.1373C76.8381 197.865 61.2104 192.811 56.6498 179.827C55.2422 175.843 52.6586 172.38 49.2408 169.895C45.8229 167.411 41.7316 166.022 37.5076 165.913H37.4494C23.7393 165.564 14.0951 152.29 17.9877 139.131L18.0166 139.073C20.4561 130.794 17.5514 121.848 10.6967 116.59L10.6385 116.561C-0.254492 108.195 -0.254492 91.813 10.6385 83.4474L10.6967 83.4185C17.5514 78.161 20.4561 69.2142 17.9877 60.9356V60.8774C14.0658 47.7192 23.7389 34.4442 37.4494 34.0958H37.5076C46.1346 33.8634 53.774 28.3442 56.6498 20.1821V20.1532C61.21 7.19814 76.8381 2.11493 88.1373 9.929H88.1662C95.2826 14.838 104.694 14.838 111.84 9.929C123.253 2.04736 138.794 7.27587 143.356 20.1532V20.1821C146.232 28.3153 153.842 33.8638 162.499 34.0958H162.557C176.267 34.4442 185.911 47.7192 182.019 60.8774L181.99 60.9356C179.55 69.2142 182.454 78.161 189.31 83.4185L189.368 83.4474C200.261 91.813 200.261 108.196 189.368 116.562Z" fill="#3EB655"/>
<path d="M100.007 154.107C129.89 154.107 154.115 129.882 154.115 99.9988C154.115 70.1157 129.89 45.8906 100.007 45.8906C70.1235 45.8906 45.8984 70.1157 45.8984 99.9988C45.8984 129.882 70.1235 154.107 100.007 154.107Z" fill="#8BD399"/>
<path opacity="0.2" d="M141.552 65.3641C132.193 57.6648 120.219 53.0371 107.166 53.0371C77.2832 53.0371 53.0449 77.2754 53.0449 107.158C53.0449 120.211 57.6727 132.185 65.3715 141.544C53.4805 131.625 45.9062 116.704 45.9062 99.9988C45.9062 70.1156 70.1238 45.8984 100.007 45.8984C116.712 45.8984 131.633 53.4727 141.552 65.3641Z" fill="white"/>
<path d="M87.1276 121.184L75.1624 108.454C72.0288 105.119 72.1905 99.8769 75.5237 96.7433C78.8569 93.6058 84.1019 93.7742 87.2327 97.1062L92.9444 103.18L117.223 75.4312C120.232 71.9875 125.467 71.6382 128.913 74.6519C132.357 77.6656 132.705 82.8984 129.692 86.3421L99.3976 120.965C96.1702 124.65 90.4745 124.746 87.1276 121.184Z" fill="white"/>
</svg>
