<svg width="13" height="12" viewBox="0 0 13 12" fill="none" xmlns="http://www.w3.org/2000/svg">
<path d="M10.7235 10.226H8.94648V7.44147C8.94648 6.77747 8.93301 5.923 8.02048 5.923C7.09401 5.923 6.95248 6.64553 6.95248 7.39247V10.226H5.17548V4.5H6.88248V5.28047H6.90548C7.14401 4.83047 7.72401 4.3555 8.59048 4.3555C10.391 4.3555 10.724 5.54053 10.724 7.083L10.7235 10.226ZM3.1685 3.7165C2.5965 3.7165 2.137 3.2535 2.137 2.684C2.137 2.115 2.597 1.6525 3.1685 1.6525C3.7385 1.6525 4.2005 2.115 4.2005 2.684C4.2005 3.2535 3.738 3.7165 3.1685 3.7165ZM4.0595 10.226H2.2775V4.5H4.0595V10.226ZM11.6125 0H1.3855C0.896 0 0.5 0.387 0.5 0.8645V11.1355C0.5 11.6135 0.896 12 1.3855 12H11.611C12.1 12 12.5 11.6135 12.5 11.1355V0.8645C12.5 0.387 12.1 0 11.611 0H11.6125Z" fill="#E40443"/>
</svg>
