<svg width="15" height="14" viewBox="0 0 15 14" fill="none" xmlns="http://www.w3.org/2000/svg">
<path d="M8.18735 0.333984C8.93762 0.335224 9.31782 0.339191 9.64635 0.348971L9.77575 0.353204C9.92522 0.358518 10.0727 0.365184 10.2505 0.373518C10.9599 0.406291 11.4438 0.518518 11.8688 0.683518C12.3082 0.852958 12.6794 1.08185 13.0499 1.4524C13.4199 1.82296 13.6488 2.19518 13.8188 2.63352C13.9832 3.05796 14.0955 3.5424 14.1288 4.25185C14.1368 4.42962 14.1432 4.57709 14.1484 4.72659L14.1526 4.85598C14.1624 5.18448 14.1668 5.56473 14.1682 6.315L14.1688 6.81213C14.1688 6.87286 14.1688 6.93553 14.1688 7.0002L14.1688 7.18826L14.1684 7.6854C14.1671 8.43567 14.1632 8.81586 14.1534 9.1444L14.1491 9.2738C14.1438 9.42326 14.1372 9.57073 14.1288 9.74853C14.096 10.4579 13.9832 10.9419 13.8188 11.3669C13.6494 11.8063 13.4199 12.1774 13.0499 12.5479C12.6794 12.9179 12.3066 13.1469 11.8688 13.3169C11.4438 13.4813 10.9599 13.5935 10.2505 13.6269C10.0727 13.6348 9.92522 13.6412 9.77575 13.6465L9.64635 13.6507C9.31782 13.6604 8.93762 13.6649 8.18735 13.6663L7.69022 13.6668C7.62948 13.6669 7.56682 13.6669 7.50215 13.6669L7.31408 13.6668L6.81695 13.6664C6.06668 13.6651 5.68643 13.6612 5.35793 13.6514L5.22854 13.6471C5.07904 13.6419 4.93158 13.6352 4.7538 13.6269C4.04436 13.5941 3.56102 13.4813 3.13547 13.3169C2.69658 13.1474 2.32491 12.9179 1.95436 12.5479C1.5838 12.1774 1.35547 11.8046 1.18547 11.3669C1.02047 10.9419 0.908804 10.4579 0.875471 9.74853C0.867551 9.57073 0.861091 9.42326 0.855858 9.2738L0.851664 9.1444C0.841911 8.81586 0.837464 8.43567 0.836024 7.6854L0.835938 6.315C0.837178 5.56473 0.841144 5.18448 0.850924 4.85598L0.855158 4.72659C0.860471 4.57709 0.867138 4.42962 0.875471 4.25185C0.908244 3.54185 1.02047 3.05852 1.18547 2.63352C1.35491 2.19462 1.5838 1.82296 1.95436 1.4524C2.32491 1.08185 2.69714 0.853518 3.13547 0.683518C3.56047 0.518518 4.0438 0.406851 4.7538 0.373518C4.93158 0.365598 5.07904 0.359138 5.22854 0.353904L5.35793 0.349711C5.68643 0.339958 6.06668 0.335511 6.81695 0.334071L8.18735 0.333984ZM7.50215 3.66685C5.6602 3.66685 4.1688 5.15987 4.1688 7.0002C4.1688 8.84213 5.66183 10.3335 7.50215 10.3335C9.34408 10.3335 10.8355 8.84047 10.8355 7.0002C10.8355 5.15825 9.34242 3.66685 7.50215 3.66685ZM7.50215 5.00019C8.60675 5.00019 9.50215 5.89527 9.50215 7.0002C9.50215 8.1048 8.60702 9.0002 7.50215 9.0002C6.39755 9.0002 5.50214 8.10507 5.50214 7.0002C5.50214 5.8956 6.39722 5.00019 7.50215 5.00019ZM11.0022 2.66685C10.5426 2.66685 10.1688 3.04012 10.1688 3.49962C10.1688 3.95911 10.5421 4.33296 11.0022 4.33296C11.4616 4.33296 11.8355 3.95969 11.8355 3.49962C11.8355 3.04012 11.461 2.66627 11.0022 2.66685Z" fill="#E40443"/>
</svg>
