<svg width="29" height="29" viewBox="0 0 29 29" fill="none" xmlns="http://www.w3.org/2000/svg">
<g filter="url(#filter0_f_2700_157390)">
<path d="M10.9171 19.4541L11.1278 19.5783C12.0126 20.1011 13.0271 20.3776 14.0616 20.3781H14.0638C17.241 20.3781 19.8267 17.8045 19.828 14.6413C19.8286 13.1084 19.2296 11.667 18.1412 10.5827C17.6075 10.0479 16.9724 9.62388 16.2729 9.3351C15.5734 9.04633 14.8233 8.89855 14.0661 8.90032C10.8865 8.90032 8.30067 11.4737 8.29954 14.6367C8.29797 15.7168 8.60348 16.7752 9.18076 17.6897L9.3179 17.9067L8.73548 20.0235L10.9171 19.4541ZM7.07031 21.6634L8.05428 18.0869C7.44744 17.0402 7.12819 15.8527 7.12856 14.6362C7.13017 10.8305 10.2411 7.73438 14.0639 7.73438C15.919 7.73531 17.6602 8.45402 18.9698 9.75866C20.2793 11.0633 20.9998 12.7974 20.9992 14.6417C20.9975 18.4472 17.8861 21.5439 14.0638 21.5439H14.0608C12.9002 21.5434 11.7598 21.2535 10.7468 20.7036L7.07031 21.6634Z" fill="#B3B3B3"/>
</g>
<path d="M7 21.5931L7.98396 18.0165C7.37608 16.9673 7.05678 15.7771 7.05825 14.5659C7.05985 10.7602 10.1708 7.66406 13.9936 7.66406C15.8487 7.665 17.5899 8.38371 18.8995 9.68835C20.209 10.993 20.9295 12.7271 20.9289 14.5714C20.9272 18.3769 17.8158 21.4736 13.9935 21.4736H13.9905C12.8299 21.4731 11.6895 21.1832 10.6765 20.6333L7 21.5931Z" fill="white"/>
<path d="M13.9931 8.82814C10.8135 8.82814 8.2277 11.4015 8.22657 14.5645C8.225 15.6446 8.53052 16.7031 9.10779 17.6175L9.24494 17.8346L8.66251 19.9514L10.8442 19.3819L11.0549 19.5061C11.9397 20.0289 12.9542 20.3054 13.9888 20.3059H13.9909C17.1681 20.3059 19.7539 17.7323 19.7551 14.5691C19.7575 13.8152 19.6097 13.0682 19.3201 12.3716C19.0306 11.6749 18.6051 11.0423 18.0684 10.5105C17.5346 9.97572 16.8995 9.55168 16.2 9.2629C15.5005 8.97413 14.7504 8.82636 13.9931 8.82814Z" fill="url(#paint0_linear_2700_157390)"/>
<path fill-rule="evenodd" clip-rule="evenodd" d="M12.2595 11.6771C12.1296 11.3898 11.9929 11.384 11.8695 11.379L11.5374 11.375C11.4218 11.375 11.234 11.4182 11.0753 11.5908C10.9166 11.7635 10.4688 12.1808 10.4688 13.0296C10.4688 13.8783 11.0897 14.6985 11.1763 14.8137C11.2628 14.929 12.375 16.7262 14.1364 17.4177C15.6002 17.9924 15.898 17.8781 16.2159 17.8494C16.5337 17.8207 17.2411 17.4321 17.3854 17.0293C17.5297 16.6264 17.5298 16.2813 17.4866 16.2091C17.4433 16.1369 17.3277 16.0941 17.1543 16.0077C16.9809 15.9214 16.1291 15.5041 15.9702 15.4465C15.8114 15.3889 15.6959 15.3602 15.5803 15.5329C15.4646 15.7056 15.1329 16.094 15.0318 16.2091C14.9307 16.3242 14.8297 16.3387 14.6563 16.2525C14.4828 16.1662 13.9248 15.984 13.2628 15.3963C12.7476 14.939 12.3999 14.3743 12.2987 14.2017C12.1974 14.0291 12.2879 13.9357 12.3748 13.8497C12.4526 13.7724 12.5481 13.6482 12.6349 13.5476C12.7217 13.4469 12.7503 13.3749 12.808 13.2599C12.8656 13.145 12.8369 13.044 12.7935 12.9578C12.7502 12.8715 12.4135 12.0184 12.2595 11.6772" fill="white"/>
<defs>
<filter id="filter0_f_2700_157390" x="0.0083127" y="0.672375" width="28.0537" height="28.0537" filterUnits="userSpaceOnUse" color-interpolation-filters="sRGB">
<feFlood flood-opacity="0" result="BackgroundImageFix"/>
<feBlend mode="normal" in="SourceGraphic" in2="BackgroundImageFix" result="shape"/>
<feGaussianBlur stdDeviation="3.531" result="effect1_foregroundBlur_2700_157390"/>
</filter>
<linearGradient id="paint0_linear_2700_157390" x1="13.8735" y1="9.51692" x2="13.9314" y2="19.3254" gradientUnits="userSpaceOnUse">
<stop stop-color="#57D163"/>
<stop offset="1" stop-color="#23B33A"/>
</linearGradient>
</defs>
</svg>
